<?xml version="1.0" encoding="UTF-8" standalone="no"?>
<!DOCTYPE svg PUBLIC "-//W3C//DTD SVG 1.1//EN" "http://www.w3.org/Graphics/SVG/1.1/DTD/svg11.dtd">
<svg width="100%" height="100%" viewBox="0 0 3095 461" version="1.1" xmlns="http://www.w3.org/2000/svg" xmlns:xlink="http://www.w3.org/1999/xlink" xml:space="preserve" xmlns:serif="http://www.serif.com/" style="fill-rule:evenodd;clip-rule:evenodd;stroke-linejoin:round;stroke-miterlimit:2;">
    <g transform="matrix(0.0643667,-8.75348e-34,-1.50052e-33,-0.0643667,-28.6846,461.754)">
        <path d="M3971,6589C3016,6548 2220,6396 1840,6183C1704,6106 1593,5982 1587,5900C1586,5889 1582,5880 1578,5880C1574,5880 1570,5158 1570,4276L1570,2673L1478,2667C1342,2658 1280,2635 1280,2595C1280,2524 1686,2508 1755,2576C1768,2590 1770,2755 1770,4071L1770,5550L1819,5520C2195,5288 3061,5130 4158,5094L4360,5087L4360,889L4338,859C4307,818 4307,743 4336,703C4416,595 4622,558 4767,625C4836,656 4868,684 4886,727C4905,771 4904,799 4880,845C4860,884 4860,904 4860,2991L4860,5097L5028,5104C5461,5121 5944,5176 6325,5251C6420,5270 6705,5341 6743,5355C6759,5362 6760,5291 6760,3961L6760,2559L6788,2530C6903,2406 7458,2416 7529,2542C7542,2565 7542,2571 7528,2592C7497,2639 7386,2675 7239,2686L7150,2693L7150,5526L7212,5575C7417,5738 7420,5942 7221,6107C6816,6441 5398,6651 3971,6589ZM4945,6370C5300,6355 5640,6325 5925,6284C6047,6267 6294,6223 6325,6213C6336,6210 6185,6183 5990,6154C5694,6110 5614,6101 5510,6102C5412,6103 5374,6100 5335,6086C5163,6023 5128,5899 5262,5825C5311,5797 5322,5795 5420,5795C5510,5796 5534,5799 5590,5822C5637,5842 5719,5859 5890,5884C6284,5943 6741,6010 6751,6010C6756,6010 6760,5923 6760,5800L6760,5591L6678,5566C6249,5436 5620,5346 4982,5322L4800,5315L4800,5382C4800,5440 4803,5449 4820,5455C4831,5458 4845,5471 4851,5482C4870,5517 4848,5545 4783,5571C4732,5591 4707,5594 4585,5594C4463,5594 4437,5591 4387,5571C4303,5538 4287,5488 4351,5455C4379,5440 4380,5436 4380,5375L4380,5310L4303,5310C4175,5310 3789,5329 3585,5345C2743,5412 2072,5574 1855,5763C1833,5782 1818,5801 1822,5806C1827,5810 2083,5801 2392,5785L2954,5758L3005,5730C3141,5654 3335,5683 3408,5790C3427,5818 3431,5834 3427,5872C3414,6020 3194,6104 3020,6029L2972,6008L2569,6029C2347,6041 2145,6050 2120,6050C2061,6051 2075,6058 2225,6108C2828,6309 3919,6414 4945,6370Z" style="fill:white;fill-rule:nonzero;"/>
    </g>
    <g transform="matrix(1,0,0,1,180.282,-6.18752)">
        <text x="420.679px" y="340.893px" style="font-family:'ArialMT', 'Arial', sans-serif;font-size:291.667px;fill:white;">AS ESTREBEDES</text>
    </g>
</svg>
